<?xml version="1.0" standalone="no"?>
<!DOCTYPE svg PUBLIC "-//W3C//DTD SVG 20010904//EN"
 "http://www.w3.org/TR/2001/REC-SVG-20010904/DTD/svg10.dtd">
<svg version="1.0" xmlns="http://www.w3.org/2000/svg"
 width="200.000000pt" height="363.000000pt" viewBox="0 0 200.000000 363.000000"
 preserveAspectRatio="xMidYMid meet">

<g transform="translate(0.000000,363.000000) scale(0.100000,-0.100000)"
fill="#000000" stroke="none">
<path d="M995 3596 c-45 -61 -46 -63 -34 -92 6 -16 15 -51 20 -79 l8 -50 -3
53 c-3 49 -2 52 20 52 16 0 24 -6 25 -17 1 -10 7 2 15 27 13 42 13 46 -11 82
-29 43 -27 42 -40 24z m25 -21 c11 -13 8 -15 -15 -15 -23 0 -26 2 -15 15 7 8
14 15 15 15 1 0 8 -7 15 -15z m13 -52 c-13 -2 -35 -2 -50 0 -16 2 -5 4 22 4
28 0 40 -2 28 -4z"/>
<path d="M1031 3344 c0 -11 3 -14 6 -6 3 7 2 16 -1 19 -3 4 -6 -2 -5 -13z"/>
<path d="M971 3334 c0 -11 3 -14 6 -6 3 7 2 16 -1 19 -3 4 -6 -2 -5 -13z"/>
<path d="M1041 3304 c0 -11 3 -14 6 -6 3 7 2 16 -1 19 -3 4 -6 -2 -5 -13z"/>
<path d="M961 3294 c0 -11 3 -14 6 -6 3 7 2 16 -1 19 -3 4 -6 -2 -5 -13z"/>
<path d="M1051 3253 c-1 -35 -9 -41 -29 -21 -9 9 -16 7 -32 -7 -21 -19 -24
-16 -33 30 -2 12 -7 2 -11 -25 -6 -31 -5 -45 3 -48 9 -3 8 -11 -4 -28 -24 -37
-2 -64 52 -64 28 0 43 -4 43 -12 0 -7 9 2 20 20 18 30 19 34 5 56 -12 18 -13
25 -4 28 9 3 9 16 2 53 -9 43 -11 45 -12 18z m-23 -51 c2 -7 -7 -12 -23 -12
-24 0 -26 2 -15 15 14 17 31 16 38 -3z m-63 -2 c3 -5 1 -10 -4 -10 -6 0 -11 5
-11 10 0 6 2 10 4 10 3 0 8 -4 11 -10z m63 -27 c-10 -2 -26 -2 -35 0 -10 3 -2
5 17 5 19 0 27 -2 18 -5z m5 -70 c-13 -2 -35 -2 -50 0 -16 2 -5 4 22 4 28 0
40 -2 28 -4z"/>
<path d="M961 2974 c0 -11 3 -14 6 -6 3 7 2 16 -1 19 -3 4 -6 -2 -5 -13z"/>
<path d="M990 2935 c-10 -12 -16 -13 -27 -4 -18 16 -26 6 -25 -31 0 -16 -4
-30 -9 -30 -5 0 -9 -8 -9 -17 0 -15 2 -16 10 -3 8 12 10 9 10 -12 0 -29 -14
-35 -39 -19 -19 12 -47 -37 -31 -53 5 -5 10 -18 10 -28 0 -11 6 -18 13 -17 30
4 46 -2 50 -18 4 -17 5 -17 6 0 1 15 11 18 74 18 39 0 80 0 90 0 10 0 17 8 17
18 0 10 7 24 16 32 14 11 14 13 0 21 -9 5 -16 16 -16 24 0 8 -5 12 -10 9 -6
-4 -8 -11 -5 -16 4 -5 -2 -6 -12 -2 -34 12 -36 16 -17 31 16 13 17 14 2 9 -20
-7 -25 9 -5 16 9 4 9 6 -1 6 -8 1 -10 9 -7 24 3 12 -1 31 -9 42 -14 18 -15 18
-16 3 0 -22 -8 -23 -30 -3 -15 14 -18 14 -30 0z m26 -33 c-22 -5 -30 3 -21 18
5 8 11 7 22 -2 15 -12 14 -13 -1 -16z m-52 -3 c-3 -5 -10 -7 -15 -3 -5 3 -7
10 -3 15 3 5 10 7 15 3 5 -3 7 -10 3 -15z m106 12 c0 -6 -4 -13 -10 -16 -5 -3
-10 1 -10 9 0 9 5 16 10 16 6 0 10 -4 10 -9z m-50 -45 c0 -3 -4 -8 -10 -11 -5
-3 -10 -1 -10 4 0 6 5 11 10 11 6 0 10 -2 10 -4z m-35 -16 c3 -5 -1 -10 -10
-10 -9 0 -13 5 -10 10 3 6 8 10 10 10 2 0 7 -4 10 -10z m60 0 c3 -5 -1 -10
-10 -10 -9 0 -13 5 -10 10 3 6 8 10 10 10 2 0 7 -4 10 -10z m-62 -27 c-7 -2
-19 -2 -25 0 -7 3 -2 5 12 5 14 0 19 -2 13 -5z m70 0 c-7 -2 -19 -2 -25 0 -7
3 -2 5 12 5 14 0 19 -2 13 -5z m-38 -13 c3 -5 -1 -10 -10 -10 -9 0 -13 5 -10
10 3 6 8 10 10 10 2 0 7 -4 10 -10z m-102 -50 c-23 -22 -28 -18 -13 9 6 12 16
19 21 15 6 -4 3 -13 -8 -24z m77 20 c0 -5 -4 -10 -10 -10 -5 0 -10 5 -10 10 0
6 5 10 10 10 6 0 10 -4 10 -10z m55 0 c3 -5 1 -10 -4 -10 -6 0 -11 5 -11 10 0
6 2 10 4 10 3 0 8 -4 11 -10z m65 1 c0 -5 3 -18 7 -28 6 -17 6 -17 -10 -1 -19
18 -22 38 -7 38 6 0 10 -4 10 -9z m-90 -31 c0 -11 -61 -24 -87 -17 -10 3 -1 5
20 6 20 0 37 6 37 11 0 6 7 10 15 10 8 0 15 -4 15 -10z m57 4 c-3 -3 -12 -4
-19 -1 -8 3 -5 6 6 6 11 1 17 -2 13 -5z m1 -21 c-10 -2 -26 -2 -35 0 -10 3 -2
5 17 5 19 0 27 -2 18 -5z"/>
<path d="M958 2673 c-12 -11 -18 -13 -18 -5 0 10 -5 10 -21 2 -15 -9 -19 -18
-15 -34 3 -13 -1 -31 -9 -42 -8 -10 -14 -23 -14 -29 0 -5 6 -2 13 8 11 14 16
15 22 6 4 -7 2 -15 -4 -17 -7 -2 -10 -8 -6 -13 3 -5 -7 -9 -23 -10 l-28 -1 25
-8 c20 -6 21 -8 6 -9 -11 -1 -28 7 -39 17 -19 16 -20 16 -14 0 3 -10 3 -17 -1
-16 -32 6 -56 -37 -27 -48 8 -4 15 -12 15 -19 0 -7 9 -11 24 -8 17 4 25 0 29
-16 4 -16 1 -20 -16 -18 -17 2 -25 -7 -36 -40 -11 -32 -21 -43 -36 -43 -19 1
-19 1 2 19 12 10 20 21 17 24 -4 3 -17 -6 -29 -21 l-24 -27 37 -6 37 -6 -35
-1 c-19 -1 -46 4 -60 11 -22 11 -26 10 -35 -8 -6 -11 -20 -24 -33 -30 -12 -5
-22 -14 -22 -20 1 -19 47 -85 55 -77 4 4 6 -5 3 -20 -4 -22 -1 -28 19 -32 19
-5 23 -13 23 -44 -1 -33 -2 -35 -14 -19 -7 9 -17 17 -21 17 -4 0 4 -15 19 -34
35 -47 33 -58 -3 -16 -18 21 -28 42 -25 53 3 9 1 17 -4 17 -5 0 -12 -10 -16
-22 -4 -17 -8 -20 -17 -11 -9 9 -8 16 5 28 18 18 21 30 6 20 -6 -3 -10 4 -10
17 0 17 -2 20 -9 9 -5 -8 -7 -19 -5 -25 3 -7 -5 -12 -16 -13 -11 -1 -20 4 -20
13 0 8 5 14 10 14 18 0 10 26 -14 49 -14 13 -29 20 -35 16 -6 -3 -11 1 -11 10
0 9 -14 31 -31 48 -30 30 -31 30 -24 7 4 -14 11 -29 16 -34 5 -6 9 -20 9 -32
0 -13 4 -25 8 -28 4 -2 7 10 6 27 -1 18 1 22 3 10 4 -22 33 -41 33 -21 0 7 10
1 22 -12 15 -16 18 -25 10 -28 -15 -5 -16 -44 0 -60 15 -15 6 -24 -16 -16 -9
4 -15 12 -12 19 2 7 -1 18 -7 25 -9 10 -9 14 1 17 17 7 15 33 -3 33 -12 0 -14
-11 -11 -52 4 -49 6 -53 31 -56 17 -2 29 -11 33 -24 3 -15 7 -16 13 -7 5 8 3
17 -4 21 -7 4 3 6 21 5 17 -2 35 -7 40 -12 4 -5 2 -5 -5 -1 -17 9 -60 -35 -56
-59 4 -19 3 -19 -10 -2 -8 9 -18 17 -22 17 -5 0 1 -10 13 -23 16 -17 19 -26
11 -34 -14 -14 -3 -33 19 -33 11 0 18 -8 19 -20 1 -11 -3 -20 -8 -20 -6 0 -7
5 -4 10 3 6 1 10 -4 10 -20 0 -11 -21 11 -29 l23 -8 -23 -7 c-28 -9 -24 -28 9
-37 13 -4 19 -7 13 -8 -7 -1 -11 -9 -10 -18 0 -11 -5 -17 -14 -15 -12 3 -13 1
-2 -9 16 -18 15 -39 -3 -39 -8 0 -12 -6 -9 -15 5 -11 0 -13 -24 -6 -20 6 -34
5 -41 -2 -8 -8 -11 -8 -11 1 0 7 -7 12 -16 12 -13 0 -12 5 6 27 l21 27 -23 17
c-28 21 -34 18 -16 -10 10 -16 10 -23 0 -33 -8 -8 -12 -8 -12 -1 0 6 -9 9 -19
6 -10 -3 -28 0 -39 6 -17 9 -15 1 13 -44 46 -77 56 -88 69 -75 13 13 49 13 41
0 -3 -5 -13 -10 -20 -10 -8 0 -29 -9 -47 -21 -18 -12 -24 -18 -13 -14 11 4 31
10 44 13 21 4 22 2 16 -19 -7 -21 -6 -22 8 -10 14 11 18 11 23 -3 10 -25 0
-30 -69 -32 -45 -2 -74 2 -104 17 -43 19 -58 33 -26 23 10 -3 1 4 -19 15 -20
12 -39 25 -43 30 -10 17 -93 24 -124 11 -51 -21 -71 -87 -46 -151 4 -11 0 -19
-12 -23 -28 -10 -64 -33 -64 -40 3 -30 -3 -43 -24 -53 -31 -14 -32 -5 -3 33
l21 29 -22 -21 c-25 -24 -45 -92 -31 -109 6 -7 3 -47 -5 -101 -25 -154 -14
-332 31 -484 28 -95 101 -232 170 -319 359 -448 1011 -496 1434 -104 242 224
352 561 295 907 -8 54 -11 94 -5 101 14 17 -6 85 -31 109 l-22 21 22 -29 c25
-33 24 -37 -7 -29 -19 5 -25 17 -21 49 0 7 -36 30 -64 40 -12 4 -16 12 -11 23
24 55 7 128 -36 151 -11 6 -43 10 -71 8 -60 -4 -83 -24 -85 -74 -2 -75 -95
-109 -174 -63 l-35 20 30 -6 c17 -3 38 -8 49 -12 12 -3 16 -1 12 6 -4 6 0 11
9 11 19 0 91 36 99 49 4 5 1 13 -5 17 -8 4 -9 3 -5 -5 12 -19 -73 -49 -135
-46 -70 3 -94 12 -78 31 8 10 15 11 25 4 10 -9 11 -7 7 9 -3 12 -1 21 6 21 7
0 23 12 36 28 24 27 33 48 16 38 -12 -8 -22 37 -11 48 15 15 12 26 -4 20 -7
-3 -16 1 -19 9 -7 18 41 79 55 71 5 -3 12 4 15 15 5 20 6 20 19 4 11 -14 14
-15 13 -3 -1 8 3 28 10 44 6 16 9 31 6 34 -3 3 -10 -9 -16 -26 -6 -18 -14 -30
-17 -28 -4 2 -25 -13 -47 -35 -22 -21 -45 -39 -52 -39 -17 0 -16 -11 3 -38 14
-20 14 -24 0 -37 -8 -8 -17 -11 -20 -6 -4 6 -19 6 -38 0 -30 -8 -57 -1 -30 8
6 3 12 12 11 21 0 11 -2 12 -6 5 -9 -23 -21 -14 -27 20 -12 56 -9 78 15 103
22 24 22 24 3 39 -19 14 -19 14 1 15 15 0 17 2 6 9 -8 5 -10 14 -6 21 6 10 11
9 22 -5 7 -11 13 -14 13 -8 0 7 -5 15 -11 18 -7 5 -2 16 12 31 12 13 19 24 14
24 -4 0 -14 -8 -21 -17 -13 -17 -13 -17 -14 2 -1 24 -17 47 -45 63 -17 10 -24
7 -48 -21 -23 -26 -26 -28 -16 -7 7 14 13 45 14 70 0 38 3 45 21 48 17 2 20 8
16 30 -3 15 -1 24 3 19 5 -4 19 11 32 34 27 48 28 59 9 59 -8 0 -23 11 -34 25
-18 22 -23 24 -50 14 -17 -6 -43 -9 -59 -6 -23 3 -22 4 10 6 l38 1 -22 30
c-12 16 -26 27 -31 24 -5 -3 2 -14 14 -24 l23 -19 -22 -1 c-16 0 -23 8 -28 33
-9 42 -24 59 -46 52 -14 -5 -16 -2 -12 15 4 15 12 20 27 18 20 -3 56 29 56 50
0 10 -29 26 -42 24 -4 -1 -4 6 -1 15 5 12 3 14 -8 7 -29 -18 -89 12 -73 37 5
9 11 6 21 -6 7 -11 13 -15 13 -9 0 5 -7 17 -14 27 -8 10 -12 27 -9 38 4 13 -2
27 -16 40 -19 18 -21 18 -21 3 0 -16 -1 -16 -19 0 -19 17 -20 17 -31 -4 l-11
-21 -17 21 c-16 20 -18 20 -34 3z m32 -24 c0 -5 -7 -9 -15 -9 -15 0 -20 12 -9
23 8 8 24 -1 24 -14z m60 0 c0 -5 -7 -9 -15 -9 -15 0 -20 12 -9 23 8 8 24 -1
24 -14z m-119 -12 c-13 -13 -26 -3 -16 12 3 6 11 8 17 5 6 -4 6 -10 -1 -17z
m169 8 c0 -8 -4 -15 -9 -15 -13 0 -22 16 -14 24 11 11 23 6 23 -9z m-170 -45
c0 -5 -2 -10 -4 -10 -3 0 -8 5 -11 10 -3 6 -1 10 4 10 6 0 11 -4 11 -10z m38
-22 c-7 -19 -21 -12 -23 9 -1 18 1 20 12 11 8 -6 12 -15 11 -20z m40 20 c16
-16 15 -28 -3 -28 -9 0 -12 6 -8 17 4 10 2 14 -5 9 -6 -3 -13 -2 -17 4 -9 14
18 13 33 -2z m32 2 c0 -5 -4 -10 -10 -10 -5 0 -10 5 -10 10 0 6 5 10 10 10 6
0 10 -4 10 -10z m24 -12 c-1 -13 -3 -25 -3 -27 -1 -3 -6 0 -13 7 -8 8 -8 15 2
27 16 20 17 19 14 -7z m36 12 c0 -5 -4 -10 -10 -10 -5 0 -10 5 -10 10 0 6 5
10 10 10 6 0 10 -4 10 -10z m-80 -70 c0 -5 -7 -10 -16 -10 -8 0 -12 5 -9 10 3
6 10 10 16 10 5 0 9 -4 9 -10z m-73 -30 c-1 -20 -9 -25 -20 -13 -4 3 -2 12 4
20 15 18 18 17 16 -7z m137 -11 c-9 -16 -20 -10 -21 12 -2 17 1 18 12 9 8 -7
12 -16 9 -21z m-257 -1 c-3 -8 -6 -5 -6 6 -1 11 2 17 5 13 3 -3 4 -12 1 -19z
m37 1 c-3 -5 -10 -7 -15 -3 -5 3 -7 10 -3 15 3 5 10 7 15 3 5 -3 7 -10 3 -15z
m46 6 c0 -8 -4 -15 -10 -15 -5 0 -10 7 -10 15 0 8 5 15 10 15 6 0 10 -7 10
-15z m70 -1 c0 -8 -4 -12 -10 -9 -5 3 -10 10 -10 16 0 5 5 9 10 9 6 0 10 -7
10 -16z m70 7 c0 -6 -4 -13 -10 -16 -5 -3 -10 1 -10 9 0 9 5 16 10 16 6 0 10
-4 10 -9z m72 -6 c0 -5 -5 -11 -10 -13 -5 -1 -9 4 -9 13 0 9 4 14 9 13 5 -2
10 -8 10 -13z m42 -6 c-3 -5 -10 -7 -15 -3 -5 3 -7 10 -3 15 3 5 10 7 15 3 5
-3 7 -10 3 -15z m23 -1 c-3 -8 -6 -5 -6 6 -1 11 2 17 5 13 3 -3 4 -12 1 -19z
m-173 -29 c-3 -5 -10 -7 -15 -3 -5 3 -7 10 -3 15 3 5 10 7 15 3 5 -3 7 -10 3
-15z m-39 -4 c0 -5 -22 -11 -50 -11 l-50 -2 50 7 c48 7 49 7 18 14 l-33 7 33
-2 c17 -2 32 -7 32 -13z m105 5 l-45 -7 50 -3 c47 -3 48 -4 11 -7 -21 -3 -45
-2 -53 1 -27 11 -2 26 40 24 l42 -1 -45 -7z m-140 -34 c0 -11 -19 -15 -25 -6
-3 5 1 10 9 10 9 0 16 -2 16 -4z m68 -8 c17 -17 15 -28 -4 -28 -9 0 -14 6 -11
13 3 7 -3 13 -13 13 -10 0 -16 -6 -13 -13 3 -7 -2 -13 -11 -13 -9 0 -16 4 -16
8 0 14 23 32 40 32 9 0 21 -5 28 -12z m86 0 c-3 -4 -10 -5 -16 -2 -7 5 -9 1
-5 -9 5 -13 1 -17 -14 -17 -15 0 -19 5 -15 16 3 8 2 12 -3 9 -5 -3 -12 -1 -15
3 -3 5 12 9 34 9 22 0 37 -4 34 -9z m-229 -18 c3 -5 -1 -10 -10 -10 -9 0 -13
5 -10 10 3 6 8 10 10 10 2 0 7 -4 10 -10z m50 0 c3 -5 -3 -10 -15 -10 -12 0
-18 5 -15 10 3 6 10 10 15 10 5 0 12 -4 15 -10z m210 0 c3 -5 -3 -10 -15 -10
-12 0 -18 5 -15 10 3 6 10 10 15 10 5 0 12 -4 15 -10z m45 0 c0 -5 -4 -10 -10
-10 -5 0 -10 5 -10 10 0 6 5 10 10 10 6 0 10 -4 10 -10z m-202 -27 c-21 -2
-55 -2 -75 0 -21 2 -4 4 37 4 41 0 58 -2 38 -4z m150 0 c-21 -2 -55 -2 -75 0
-21 2 -4 4 37 4 41 0 58 -2 38 -4z m-243 -23 c3 -6 -4 -10 -17 -10 -18 0 -20
2 -8 10 19 12 18 12 25 0z m69 -2 c-3 -4 -14 -8 -24 -8 -10 0 -21 4 -24 8 -3
5 8 8 24 8 16 0 27 -3 24 -8z m46 2 c0 -5 -7 -10 -16 -10 -8 0 -12 5 -9 10 3
6 10 10 16 10 5 0 9 -4 9 -10z m55 0 c3 -5 -1 -10 -9 -10 -9 0 -16 5 -16 10 0
6 4 10 9 10 6 0 13 -4 16 -10z m60 0 c3 -5 -1 -10 -9 -10 -9 0 -16 5 -16 10 0
6 4 10 9 10 6 0 13 -4 16 -10z m60 0 c3 -5 -3 -10 -15 -10 -12 0 -18 5 -15 10
3 6 10 10 15 10 5 0 12 -4 15 -10z m-217 -27 c-21 -2 -55 -2 -75 0 -21 2 -4 4
37 4 41 0 58 -2 38 -4z m155 0 c-40 -2 -73 -8 -73 -13 0 -6 -12 -10 -26 -10
-21 0 -24 3 -15 14 8 10 36 13 99 13 85 -1 85 -1 15 -4z m-155 -20 c-16 -2
-40 -2 -55 0 -16 2 -3 4 27 4 30 0 43 -2 28 -4z m180 0 c-15 -2 -42 -2 -60 0
-18 2 -6 4 27 4 33 0 48 -2 33 -4z m177 -3 c3 -5 1 -10 -4 -10 -6 0 -11 5 -11
10 0 6 2 10 4 10 3 0 8 -4 11 -10z m-474 -32 c4 -16 3 -28 -2 -28 -9 0 -13 14
-10 37 1 6 -9 13 -21 16 -21 4 -21 4 1 3 18 -1 27 -8 32 -28z m396 25 c-21 -3
-37 -9 -36 -16 3 -23 -1 -37 -11 -37 -5 0 -7 7 -5 15 3 8 7 22 10 30 3 10 16
14 42 13 l38 -1 -38 -4z m-361 -28 c2 -20 -1 -23 -11 -15 -8 6 -11 18 -8 26 8
22 18 17 19 -11z m34 5 c0 -11 -4 -20 -10 -20 -5 0 -10 9 -10 20 0 11 5 20 10
20 6 0 10 -9 10 -20z m36 0 c0 -11 -4 -20 -8 -20 -11 0 -20 19 -13 30 10 16
21 11 21 -10z m44 0 c0 -11 -4 -20 -9 -20 -14 0 -23 18 -16 30 10 17 25 11 25
-10z m90 3 c11 -17 11 -17 6 0 -4 12 -2 17 6 15 27 -9 13 -32 -19 -34 -18 -1
-33 0 -33 1 0 2 3 10 6 19 8 21 20 20 34 -1z m60 -2 c0 -11 -4 -22 -9 -25 -5
-3 -8 5 -7 19 1 29 16 34 16 6z m36 8 c3 -6 0 -18 -9 -26 -13 -14 -15 -13 -14
11 2 27 11 34 23 15z m-476 -39 c-6 -12 -14 -19 -17 -16 -3 3 0 12 6 20 7 8 9
21 5 28 -5 10 -4 10 5 2 10 -9 10 -17 1 -34z m37 3 c-16 -16 -17 -16 -17 3 0
26 11 37 24 24 7 -7 5 -16 -7 -27z m40 5 c-3 -7 -5 -2 -5 12 0 14 2 19 5 13 2
-7 2 -19 0 -25z m37 -7 c-9 -10 -26 18 -18 30 5 9 9 8 14 -7 4 -10 6 -21 4
-23z m422 10 c-12 -19 -24 -12 -19 10 4 13 9 17 15 11 6 -6 7 -15 4 -21z m24
9 c0 -11 -4 -20 -9 -20 -5 0 -7 9 -4 20 3 11 7 20 9 20 2 0 4 -9 4 -20z m50
-13 c0 -20 -1 -20 -16 -5 -9 9 -13 21 -9 27 10 16 25 3 25 -22z m40 -24 c0 -3
-7 0 -15 7 -8 7 -15 22 -15 34 0 18 2 17 15 -8 8 -15 15 -31 15 -33z m-670 37
c0 -5 -4 -10 -10 -10 -5 0 -10 5 -10 10 0 6 5 10 10 10 6 0 10 -4 10 -10z
m690 6 c0 -3 -4 -8 -10 -11 -5 -3 -10 -1 -10 4 0 6 5 11 10 11 6 0 10 -2 10
-4z m-332 -38 c-3 -7 -13 -13 -23 -13 -10 0 -20 6 -22 13 -3 7 5 12 22 12 17
0 25 -5 23 -12z m-198 -12 c0 -3 -4 -8 -10 -11 -5 -3 -10 -1 -10 4 0 6 5 11
10 11 6 0 10 -2 10 -4z m45 -4 c-5 -4 -10 -14 -10 -22 0 -8 -8 -16 -17 -18
-11 -2 -18 3 -18 12 0 8 8 20 18 25 20 12 42 15 27 3z m57 1 c-6 -3 -9 -9 -6
-15 7 -11 -13 -28 -33 -28 -15 0 -17 22 -3 36 5 5 20 10 32 11 13 0 17 -1 10
-4z m192 -16 c13 -21 3 -31 -24 -22 -12 4 -19 12 -16 20 3 8 0 16 -7 19 -7 2
-1 3 12 2 14 -2 30 -10 35 -19z m37 13 c24 -13 26 -43 2 -38 -10 2 -18 10 -18
18 0 8 -4 18 -10 22 -15 11 4 9 26 -2z m39 0 c0 -5 -2 -10 -4 -10 -3 0 -8 5
-11 10 -3 6 -1 10 4 10 6 0 11 -4 11 -10z m120 0 c0 -5 -2 -10 -4 -10 -3 0 -8
5 -11 10 -3 6 -1 10 4 10 6 0 11 -4 11 -10z m-506 -31 c-7 -11 -44 -12 -44 -1
0 4 5 13 12 20 13 13 42 -4 32 -19z m164 13 c2 -7 -6 -12 -17 -12 -21 0 -27
11 -14 24 9 9 26 2 31 -12z m89 2 c2 -5 -15 -10 -37 -11 -22 -1 -40 2 -40 7 0
5 9 7 20 5 11 -2 22 1 26 6 7 12 26 7 31 -7z m173 -15 c0 -10 -34 -12 -43 -2
-4 3 -2 12 4 20 9 10 15 10 25 2 8 -6 14 -15 14 -20z m-483 4 c4 -12 -35 -29
-44 -20 -7 8 20 37 31 33 6 -1 11 -7 13 -13z m531 -3 c10 -16 10 -20 0 -20
-22 0 -41 17 -34 29 10 16 20 14 34 -9z m-298 -41 c0 -21 -3 -21 -87 -15 -49
4 -97 10 -108 13 l-20 6 20 8 c11 4 59 8 108 8 82 1 87 0 87 -20z m224 12 c30
-11 4 -18 -101 -26 -86 -7 -90 -6 -96 14 -5 20 -2 21 86 20 51 0 101 -4 111
-8z m-454 -43 c0 -24 3 -54 6 -68 5 -17 3 -22 -4 -15 -12 12 -22 125 -10 125
4 0 8 -19 8 -42z m502 -15 c-2 -32 -9 -62 -14 -68 -7 -7 -9 1 -4 24 3 18 6 49
6 67 0 19 4 34 8 34 5 0 7 -26 4 -57z m-248 -25 c-4 -13 2 -28 17 -44 28 -30
17 -56 -26 -64 -42 -7 -42 -27 1 -39 20 -5 45 -18 55 -27 20 -18 26 -69 9 -79
-17 -10 29 -81 87 -136 28 -27 47 -49 40 -49 -23 0 -91 56 -134 112 -68 89
-131 111 -178 63 -14 -13 -25 -36 -25 -50 0 -54 77 -88 100 -45 14 26 4 45
-15 30 -16 -13 -30 3 -21 25 7 18 47 20 64 3 18 -18 15 -63 -5 -80 -68 -58
-165 0 -149 88 12 63 83 95 154 71 35 -12 43 -12 53 -1 18 22 3 42 -40 55 -53
16 -79 43 -61 64 8 9 8 15 2 15 -16 0 -25 -39 -12 -55 6 -8 28 -19 48 -26 47
-15 66 -29 53 -42 -5 -5 -17 -5 -29 2 -54 29 -152 -2 -172 -55 -23 -59 -5
-109 51 -143 l29 -18 -57 -13 c-31 -7 -77 -21 -102 -32 -66 -28 -77 -18 -41
39 51 80 62 132 67 316 l5 168 102 -7 c104 -7 129 -15 108 -36 -16 -16 -15
-43 3 -58 22 -18 18 -28 -12 -33 -26 -4 -26 -4 5 -6 25 -1 32 3 32 18 0 10 -7
21 -15 25 -17 6 -20 42 -5 51 6 3 8 18 5 33 -5 27 -5 27 5 3 6 -13 8 -33 4
-43z m235 -318 c15 -50 46 -117 67 -140 7 -9 10 -21 5 -28 -6 -11 -15 -10 -45
4 -35 17 -36 18 -15 29 21 12 20 12 -10 18 -35 7 -120 81 -151 132 -17 27 -18
37 -9 65 10 27 9 36 -8 58 -11 15 -36 31 -56 36 -41 11 -49 26 -14 26 46 0 64
52 29 83 -13 12 -17 26 -14 47 4 28 7 30 51 31 25 0 69 4 96 7 l50 7 6 -165
c3 -91 11 -185 18 -210z m-612 328 c-3 -8 -6 -5 -6 6 -1 11 2 17 5 13 3 -3 4
-12 1 -19z m102 -84 c23 -30 33 -105 22 -159 l-9 -40 -2 40 -3 40 -6 -35 c-4
-19 -2 -43 3 -52 7 -12 7 -21 -1 -29 -9 -9 -11 -7 -7 8 7 27 -12 38 -34 22
-14 -11 -14 -10 1 8 21 24 19 44 -10 141 -17 56 -15 66 10 57 16 -7 33 -43 40
-85 3 -14 3 -6 2 18 -3 46 -27 82 -56 82 -28 0 -30 -13 -10 -66 25 -66 35
-124 21 -124 -5 0 -10 12 -10 28 0 15 -10 56 -22 91 -21 60 -22 64 -5 76 23
17 53 9 76 -21z m607 22 c17 -13 18 -17 5 -48 -7 -18 -18 -51 -23 -73 -6 -22
-15 -49 -19 -60 -16 -34 0 55 18 102 16 45 13 73 -10 73 -26 0 -49 -38 -53
-87 -3 -47 -3 -47 5 -8 9 51 28 85 46 85 19 0 19 -18 1 -61 -26 -64 -30 -118
-10 -140 15 -16 16 -24 6 -39 -15 -24 -4 -55 40 -116 19 -26 37 -43 45 -40 11
4 11 1 3 -14 -6 -11 -13 -20 -16 -20 -3 0 -3 3 -1 8 3 4 -1 12 -8 19 -10 10
-14 9 -19 -2 -3 -8 -1 -15 5 -15 6 0 7 -5 3 -12 -6 -9 -9 -9 -12 0 -2 7 -9 9
-15 5 -7 -4 -4 5 6 21 18 27 18 28 0 41 -23 17 -30 11 -12 -12 9 -11 10 -14 2
-9 -7 4 -18 16 -24 28 -8 16 -8 19 1 13 8 -5 11 -3 8 6 -3 8 -9 13 -14 12 -11
-2 -11 66 0 90 5 11 4 23 -2 29 -15 15 -35 -1 -28 -25 4 -15 2 -17 -7 -8 -8 8
-8 16 -1 29 6 9 7 28 3 42 -7 24 -7 24 -9 -5 -2 -28 -3 -27 -11 10 -14 65 -1
135 31 167 32 32 39 33 66 14z m-686 -87 c0 -5 -7 -9 -15 -9 -15 0 -20 12 -9
23 8 8 24 -1 24 -14z m695 -49 c3 -5 -1 -10 -9 -10 -9 0 -16 5 -16 10 0 6 4
10 9 10 6 0 13 -4 16 -10z m-675 -50 c0 -5 -7 -10 -16 -10 -8 0 -12 5 -9 10 3
6 10 10 16 10 5 0 9 -4 9 -10z m306 -29 c17 -10 52 -46 78 -79 26 -33 54 -63
62 -66 32 -12 12 -23 -28 -15 -24 4 -64 8 -90 9 l-47 0 24 25 c26 25 32 63 15
96 -13 24 -75 27 -84 3 -11 -28 -6 -43 14 -49 22 -7 18 -25 -6 -25 -19 0 -54
36 -54 55 0 22 45 65 67 65 10 0 32 -9 49 -19z m-264 -76 c3 -13 1 -22 -3 -19
-5 3 -9 3 -9 0 0 -2 -3 -12 -7 -22 -4 -12 -3 -15 6 -10 8 6 7 -2 -3 -22 -9
-17 -22 -34 -28 -38 -7 -5 -5 4 5 19 21 33 23 50 1 19 -8 -12 -20 -22 -25 -22
-6 0 -2 12 8 28 36 52 45 82 31 101 -11 14 -11 14 3 3 9 -7 19 -24 21 -37z
m-46 -34 c-9 -17 -26 -36 -39 -42 -18 -10 -16 -5 11 25 17 20 32 44 33 54 0 9
3 12 5 5 3 -6 -2 -25 -10 -42z m691 -23 c15 -16 22 -28 17 -28 -18 0 -52 44
-58 75 -6 29 -6 29 4 5 6 -14 23 -37 37 -52z m-835 12 l-9 -24 -12 22 c-7 13
-8 22 -2 22 6 0 8 8 4 18 -5 15 -4 16 11 1 12 -11 14 -21 8 -39z m72 -7 c8
-21 5 -23 -22 -16 -12 3 -22 11 -22 17 0 18 38 17 44 -1z m31 7 c-3 -5 -10
-10 -16 -10 -5 0 -9 5 -9 10 0 6 7 10 16 10 8 0 12 -4 9 -10z m765 0 c0 -5 -7
-10 -15 -10 -8 0 -15 5 -15 10 0 6 7 10 15 10 8 0 15 -4 15 -10z m50 -3 c0 -4
6 -5 13 -1 6 4 9 4 5 0 -3 -4 -10 -8 -15 -8 -4 0 -18 -4 -30 -9 -25 -9 -26 -8
-17 14 6 16 44 19 44 4z m30 -27 c0 -5 -5 -10 -11 -10 -5 0 -7 5 -4 10 3 6 8
10 11 10 2 0 4 -4 4 -10z m-281 -45 c98 -31 213 -106 276 -179 25 -29 45 -56
45 -59 0 -3 -35 29 -77 71 -123 123 -266 182 -436 182 -109 0 -173 -14 -266
-56 -136 -62 -231 -154 -299 -290 -50 -98 -65 -173 -60 -299 6 -169 58 -291
176 -417 24 -26 40 -48 35 -48 -16 0 -89 84 -133 152 -65 99 -93 202 -94 333
0 156 44 286 133 395 57 69 58 81 2 20 -34 -37 -51 -49 -51 -38 0 10 -12 31
-27 48 -22 24 -41 33 -82 39 -77 12 -116 65 -70 94 27 17 67 -1 95 -42 30 -46
71 -66 116 -57 18 4 44 8 58 9 14 1 46 18 70 38 76 62 203 117 305 133 66 10
204 -4 284 -29z m256 25 c4 -6 -5 -10 -19 -10 -14 0 -26 5 -26 10 0 6 9 10 19
10 11 0 23 -4 26 -10z m-1144 -17 c16 -10 29 -21 29 -25 0 -4 0 -11 0 -15 0
-5 -19 -8 -41 -8 -55 0 -71 -23 -47 -65 17 -30 17 -30 -8 -36 -33 -8 -67 22
-61 53 2 12 1 24 -4 25 -4 2 -1 18 6 36 9 21 21 32 35 32 11 0 20 5 20 10 0
16 39 12 71 -7z m1459 7 c0 -5 7 -10 15 -10 8 0 21 -13 30 -30 17 -33 19 -44
6 -36 -4 3 -6 -6 -3 -20 5 -27 -21 -64 -45 -64 -10 0 -7 9 9 30 27 37 17 76
-24 99 -31 18 -85 4 -80 -20 3 -12 1 -12 -10 -1 -11 11 -8 18 15 38 28 24 87
34 87 14z m-1107 -23 c14 -21 13 -23 -7 -24 -11 -1 -16 1 -9 4 7 2 9 11 7 18
-5 11 -9 12 -19 2 -7 -7 -11 -15 -8 -19 2 -5 2 -8 -1 -8 -14 0 -14 20 0 34 20
20 19 20 37 -7z m322 1 c19 -9 28 -9 37 0 15 15 60 15 91 1 27 -12 47 -47 47
-83 0 -25 -35 -76 -52 -76 -6 0 -4 8 5 18 49 54 -13 140 -78 110 -14 -6 -25
-16 -25 -21 0 -6 -8 -3 -17 5 -30 25 -53 29 -83 13 -39 -20 -49 -59 -26 -99
l18 -31 -26 24 c-19 18 -26 34 -26 63 0 71 65 108 135 76z m785 -28 c26 -26
25 -43 -5 -77 l-24 -28 12 33 c15 42 1 66 -43 70 -25 3 -30 6 -19 13 24 15 58
10 79 -11z m-926 -3 c-9 -26 -102 -61 -130 -50 -23 9 4 33 36 33 15 0 33 7 40
15 16 19 61 20 54 2z m376 -2 c7 -8 23 -15 35 -15 24 0 52 -25 37 -34 -18 -11
-80 7 -106 31 -14 13 -26 26 -26 28 0 12 49 3 60 -10z m-835 -4 c3 -5 27 -17
53 -27 26 -10 50 -22 53 -26 3 -5 18 -4 33 2 47 17 63 9 21 -11 -59 -28 -120
-25 -149 6 -25 27 -40 65 -26 65 5 0 11 -4 15 -9z m605 -16 c12 -14 15 -14 30
0 35 31 100 7 100 -38 0 -48 -64 -75 -100 -42 -15 14 -18 14 -30 0 -15 -18
-71 -20 -88 -3 -16 16 -16 70 0 86 17 17 73 15 88 -3z m756 -11 c9 -35 -28
-74 -72 -74 -39 0 -66 -9 -59 -20 3 -5 1 -11 -5 -15 -5 -3 -10 -11 -10 -17 0
-6 9 -3 20 7 11 10 20 15 20 11 0 -3 13 0 30 9 34 18 70 20 70 4 0 -18 -39
-76 -55 -83 -8 -3 -15 -17 -15 -31 0 -29 -12 -32 -34 -9 -19 18 -21 57 -4 87
10 20 10 21 -6 8 -12 -11 -17 -27 -15 -57 2 -24 0 -46 -4 -50 -8 -8 -37 14
-37 28 0 6 7 5 15 -2 14 -12 15 -7 12 36 -2 27 1 55 7 63 9 11 8 13 -4 9 -8
-2 -24 -21 -35 -41 l-21 -35 -47 53 c-26 29 -47 56 -47 60 0 3 13 -1 30 -10
16 -8 45 -15 66 -15 36 0 44 6 122 93 8 9 28 17 44 17 21 0 29 -6 34 -26z
m-879 -92 c16 -12 15 -13 -14 -10 -23 2 -36 -4 -51 -22 l-21 -25 1 32 c1 18
-7 44 -17 59 -17 27 -17 27 7 22 18 -3 29 1 38 15 12 19 13 18 26 -19 7 -21
21 -45 31 -52z m364 56 c19 3 19 1 8 -20 -16 -29 -29 -98 -19 -98 20 0 112
-87 145 -135 58 -89 77 -154 74 -265 -4 -111 5 -133 58 -151 33 -11 35 -13 19
-25 -12 -8 -16 -19 -11 -33 7 -24 -2 -26 -29 -6 -11 8 -34 15 -50 15 l-31 1
23 19 c17 14 21 25 16 45 -6 25 -9 23 -37 -37 -40 -82 -123 -165 -205 -205
-59 -28 -62 -31 -36 -36 20 -3 32 1 45 17 l18 21 1 -31 c0 -16 7 -39 15 -50
20 -27 18 -36 -6 -29 -14 5 -25 1 -33 -11 -12 -16 -14 -14 -25 18 -19 58 -31
63 -145 59 -101 -2 -114 0 -220 44 -18 8 -18 7 -1 -18 14 -22 22 -25 48 -20
l32 6 -28 -32 c-15 -18 -27 -41 -27 -52 0 -23 -15 -25 -24 -4 -3 8 -17 15 -32
15 -26 0 -27 1 -10 19 11 12 18 36 18 57 0 30 -6 42 -33 63 -44 33 -118 112
-124 132 -5 14 -13 15 -52 8 -25 -5 -53 -15 -61 -21 -13 -11 -14 -9 -9 14 6
21 3 28 -13 33 -26 8 -25 20 2 22 12 1 35 12 51 24 l30 22 -6 -30 c-5 -25 -2
-32 19 -41 13 -7 24 -11 24 -9 0 1 -9 25 -20 54 -42 110 -33 255 22 357 23 41
144 177 151 169 3 -2 20 5 38 16 90 53 242 62 350 22 30 -12 55 -21 56 -21 2
0 -2 11 -9 24 -9 21 -16 24 -40 19 l-29 -6 25 38 c14 21 26 45 26 54 1 13 3
12 16 -4 8 -11 24 -19 35 -17z m-510 -3 c31 -16 49 -50 49 -88 -1 -18 -3 -16
-15 10 -21 49 -71 68 -109 40 -18 -13 -40 -87 -26 -87 5 0 10 14 12 32 2 23
11 37 29 47 24 13 29 13 53 -2 20 -13 26 -26 26 -52 0 -36 -20 -55 -59 -55
-16 0 -21 -6 -21 -24 0 -33 -25 -56 -59 -56 -37 0 -53 21 -49 62 2 23 10 36
28 45 18 9 20 13 8 13 -10 0 -27 -9 -38 -20 -37 -37 -21 -92 33 -115 28 -12
29 -14 9 -15 -38 0 -79 27 -91 61 -16 45 12 100 56 113 23 7 33 17 37 38 3 17
18 36 38 48 40 24 50 25 89 5z m667 -17 c12 -12 22 -30 22 -40 0 -11 13 -23
34 -32 70 -29 87 -97 37 -147 -21 -21 -39 -29 -63 -28 -32 0 -32 1 -8 10 40
16 60 40 60 72 0 37 -25 67 -57 67 -17 0 -23 6 -23 20 0 26 -43 70 -68 70 -29
0 -70 -37 -75 -68 -3 -20 -4 -16 -6 14 -3 82 85 119 147 62z m-905 -15 c-7 -2
-19 -2 -25 0 -7 3 -2 5 12 5 14 0 19 -2 13 -5z m1070 0 c-7 -2 -19 -2 -25 0
-7 3 -2 5 12 5 14 0 19 -2 13 -5z m-1329 -34 c-4 -6 -11 -6 -20 2 -21 17 -17
31 6 19 11 -6 18 -15 14 -21z m1131 6 c14 -13 25 -33 25 -45 0 -14 7 -20 22
-20 49 0 76 -61 42 -94 -34 -35 -104 -8 -104 41 0 17 -6 23 -22 23 -42 0 -73
52 -50 86 8 12 43 33 55 34 4 0 19 -11 32 -25z m442 -2 c-15 -16 -17 -16 -17
-1 0 9 6 18 13 21 20 7 22 -2 4 -20z m-1459 1 c19 -13 26 -13 38 -3 12 10 18
9 32 -6 16 -17 16 -17 0 -12 -11 4 -18 1 -18 -6 0 -8 -4 -7 -11 3 -9 12 -9 11
-4 -5 16 -44 16 -62 -3 -85 -21 -26 -47 -19 -39 11 3 11 -1 20 -12 24 -19 6
-45 41 -55 73 -6 19 -4 22 21 22 16 0 39 -7 51 -16z m-141 -17 c4 -5 0 -5 -10
-1 -13 5 -16 2 -11 -9 4 -12 1 -14 -16 -10 -14 4 -26 -1 -35 -13 -14 -18 -14
-18 -15 2 0 11 5 25 11 31 12 12 63 12 76 0z m63 -8 c0 -5 -7 -9 -15 -9 -15 0
-20 12 -9 23 8 8 24 -1 24 -14z m1510 0 c0 -5 -7 -9 -15 -9 -9 0 -12 6 -9 15
6 15 24 11 24 -6z m108 5 c6 -2 12 -14 12 -26 -1 -22 -1 -22 -15 -5 -9 13 -20
17 -36 12 -17 -6 -21 -4 -16 8 4 12 2 14 -10 10 -11 -4 -14 -2 -9 5 6 11 31
10 74 -4z m-1653 -24 c4 -6 15 -8 24 -5 26 8 47 -20 31 -40 -9 -11 -17 -12
-30 -5 -10 6 -28 10 -39 10 -26 0 -36 17 -21 35 15 18 26 19 35 5z m185 -29
c0 -16 -7 -35 -17 -42 -15 -13 -15 -12 -4 9 7 13 10 35 6 49 -4 16 -2 22 5 18
5 -3 10 -19 10 -34z m28 -4 c-2 -33 -14 -57 -30 -57 -5 0 -4 9 2 19 5 11 10
34 10 51 0 18 4 29 10 25 6 -4 9 -21 8 -38z m1152 31 c0 -19 -18 -43 -25 -36
-9 9 4 48 16 48 5 0 9 -6 9 -12z m230 -18 c0 -13 -10 -19 -32 -22 -18 -3 -40
-7 -48 -9 -9 -2 -16 4 -18 19 -2 12 0 22 5 23 42 4 54 6 59 12 11 11 34 -5 34
-23z m-1650 -11 c0 -22 -6 -24 -25 -5 -10 10 -11 16 -3 24 15 15 28 6 28 -19z
m1700 11 c0 -10 -29 -34 -35 -28 -10 10 8 46 21 41 8 -3 14 -9 14 -13z m-1780
-19 c0 -5 -7 -12 -16 -15 -24 -9 -28 -7 -14 9 14 17 30 20 30 6z m1491 -87
c80 -167 76 -381 -9 -550 -32 -64 -71 -116 -72 -97 0 6 5 15 10 18 16 10 76
134 94 195 22 72 33 225 17 234 -7 5 -11 -1 -11 -16 0 -13 -5 -29 -11 -35 -8
-8 -8 -17 0 -31 16 -29 14 -84 -4 -109 -31 -44 -115 -38 -144 10 -13 21 -13
22 6 5 27 -24 72 -22 100 4 27 25 29 54 7 86 -15 21 -15 25 0 41 23 25 20 58
-9 86 -29 30 -66 32 -90 5 -10 -11 -21 -18 -23 -15 -3 3 5 16 18 30 44 47 130
28 153 -35 5 -13 6 -13 6 0 2 33 -30 133 -61 193 -40 75 -44 88 -22 62 9 -11
29 -47 45 -81z m359 81 c14 -16 10 -18 -14 -9 -9 3 -16 10 -16 15 0 14 16 11
30 -6z m-1802 -8 c7 -8 7 -18 2 -27 -6 -8 -10 -25 -10 -36 0 -27 -24 -38 -40
-18 -10 11 -10 17 0 29 6 8 9 19 5 25 -18 29 21 54 43 27z m182 -2 c0 -16 -27
-32 -37 -21 -7 7 16 36 28 36 5 0 9 -7 9 -15z m1395 -5 c14 -15 15 -20 4 -20
-22 0 -42 17 -35 29 9 14 10 14 31 -9z m190 -10 c0 -14 4 -31 8 -38 11 -16
-10 -43 -28 -36 -14 6 -29 79 -19 95 11 19 39 4 39 -21z m-1642 -13 c34 -38 2
-97 -52 -97 -48 0 -78 41 -61 85 18 47 77 54 113 12z m1572 8 c29 -28 31 -51
9 -83 -10 -15 -25 -22 -46 -22 -91 0 -91 124 0 129 7 1 24 -10 37 -24z m-1755
-3 c0 -13 -12 -22 -22 -16 -10 6 -1 24 13 24 5 0 9 -4 9 -8z m1861 -5 c-1 -12
-15 -9 -19 4 -3 6 1 10 8 8 6 -3 11 -8 11 -12z m-1606 -17 c4 -6 3 -19 -1 -28
-4 -9 -6 -27 -5 -39 2 -19 -3 -23 -24 -23 -26 0 -27 1 -20 43 4 23 9 45 12 50
6 11 31 9 38 -3z m150 -38 c0 -33 -37 -92 -57 -92 -14 0 -9 38 7 54 8 8 15 22
15 31 0 23 20 58 28 50 4 -4 7 -23 7 -43z m1075 -8 c0 -8 7 -26 16 -39 9 -13
14 -32 12 -42 -3 -15 -9 -13 -35 16 -30 32 -46 82 -35 110 4 11 10 9 24 -9 10
-12 18 -29 18 -36z m150 35 c0 -11 4 -28 9 -38 12 -22 -1 -44 -25 -39 -13 2
-19 13 -21 38 -3 45 3 60 22 60 8 0 15 -9 15 -21z m-1302 -14 c-13 -29 -25
-28 -46 3 -14 21 -13 22 22 22 34 0 35 -1 24 -25z m1242 17 c0 -11 -39 -47
-44 -41 -2 2 -7 14 -10 27 -7 19 -4 22 23 22 17 0 31 -4 31 -8z m304 -112 c7
-53 6 -54 -11 -35 -10 11 -27 20 -37 20 -27 0 -31 22 -6 30 14 5 20 14 18 28
-1 12 2 28 6 36 12 19 21 -5 30 -79z m-1870 45 c-4 -18 -1 -25 15 -30 12 -3
21 -11 21 -16 0 -16 -32 -23 -41 -8 -7 11 -9 11 -9 -2 0 -9 -7 -23 -17 -30
-15 -13 -15 -10 -9 36 10 73 15 85 31 78 10 -3 13 -13 9 -28z m277 22 c-1 -12
-15 -9 -19 4 -3 6 1 10 8 8 6 -3 11 -8 11 -12z m219 -17 l35 -1 -25 -20 c-18
-15 -24 -29 -22 -50 l4 -30 -26 26 c-14 14 -37 25 -51 25 -29 0 -34 16 -6 25
13 4 17 12 13 32 -5 26 -5 26 19 10 13 -10 39 -17 59 -17z m926 5 c-5 -18 -2
-27 9 -31 21 -9 19 -24 -4 -24 -11 0 -34 -12 -52 -27 l-32 -27 7 36 c6 31 4
37 -14 43 -32 10 -23 25 15 25 19 0 40 7 47 15 20 22 31 18 24 -10z m154 10
c0 -9 -6 -12 -15 -9 -8 4 -12 10 -9 15 8 14 24 10 24 -6z m-1530 -25 c-12 -22
-30 -18 -30 6 0 8 9 14 20 14 18 0 19 -3 10 -20z m1770 6 c0 -24 -15 -26 -28
-5 -11 16 -9 19 8 19 11 0 20 -6 20 -14z m-1527 -43 c-23 -76 -27 -216 -9
-301 41 -195 173 -369 340 -451 116 -56 160 -66 301 -66 115 0 138 4 203 27
105 38 177 83 252 159 123 124 180 256 188 429 3 75 -1 125 -12 174 -9 38 -14
71 -12 73 2 3 14 -1 26 -7 16 -9 19 -15 11 -23 -6 -6 -11 -18 -11 -26 1 -13 2
-13 11 2 5 9 16 17 23 17 24 0 26 -29 3 -47 -21 -17 -22 -25 -19 -108 15 -384
-285 -695 -671 -695 -242 0 -474 138 -586 349 -54 103 -75 185 -75 301 0 185
10 239 46 240 3 0 -1 -21 -9 -47z m-158 17 c20 0 26 -4 23 -17 -3 -18 -48 -32
-48 -15 0 5 -11 7 -25 4 -20 -3 -25 0 -25 15 0 27 9 34 31 23 10 -6 30 -10 44
-10z m69 -22 c-8 -13 -21 -9 -28 8 -9 25 4 37 19 17 7 -10 11 -21 9 -25z
m1466 17 c0 -16 -6 -25 -15 -25 -18 0 -20 21 -3 38 17 17 18 16 18 -13z m113
12 c9 -24 -8 -36 -53 -39 -55 -4 -64 22 -12 33 18 4 36 9 39 13 10 10 20 7 26
-7z m-1526 -32 c1 -5 -1 -16 -6 -24 -8 -12 -12 -12 -25 -2 -8 7 -12 19 -9 27
6 16 34 15 40 -1z m-176 -54 l10 -24 22 22 c13 11 26 21 29 21 12 0 78 -67 78
-79 0 -7 4 -10 9 -7 4 3 11 -38 14 -92 8 -130 40 -229 108 -329 33 -48 37 -62
12 -42 -16 13 -17 12 -4 -3 7 -10 16 -16 20 -13 10 5 113 -99 106 -107 -3 -3
3 -11 12 -19 16 -13 17 -12 4 4 -8 10 -9 17 -3 17 11 0 27 -19 27 -34 0 -5 11
-15 25 -24 l25 -14 -25 22 c-31 27 -24 25 70 -22 105 -52 176 -69 300 -69 126
0 194 16 310 73 69 33 101 57 170 127 131 133 200 288 200 450 0 65 1 67 49
118 l48 51 25 -25 25 -25 21 36 21 36 36 -21 c19 -12 35 -27 35 -34 0 -7 7
-19 16 -26 14 -12 16 -29 11 -114 -11 -194 -61 -349 -161 -498 -136 -205 -341
-349 -583 -409 -125 -31 -322 -31 -447 0 -102 26 -253 94 -329 149 -63 45
-187 162 -187 176 0 6 35 -23 78 -64 71 -70 135 -119 190 -148 44 -23 21 -3
-40 35 -35 21 -99 73 -144 116 -44 43 -83 75 -86 72 -8 -8 -62 63 -101 136
-70 127 -108 255 -122 411 -7 85 2 168 16 134 6 -16 8 -13 8 13 1 28 6 36 31
45 17 6 30 15 30 20 0 16 32 -16 41 -42z m358 34 c16 -8 31 -21 34 -29 5 -12
1 -11 -23 2 -37 21 -80 8 -98 -31 -11 -23 -11 -32 2 -58 14 -27 14 -34 1 -59
-35 -68 51 -134 107 -83 11 10 18 12 18 4 0 -16 -60 -51 -88 -51 -36 0 -82 52
-82 92 0 19 5 39 12 46 9 9 9 18 0 37 -25 54 -6 116 42 135 31 13 44 12 75 -5z
m-329 -16 c0 -5 -4 -9 -10 -9 -5 0 -10 7 -10 16 0 8 5 12 10 9 6 -3 10 -10 10
-16z m115 -5 c22 -17 26 -24 18 -38 -9 -16 -12 -15 -32 10 -13 16 -26 28 -29
26 -4 -2 -8 4 -10 12 -4 19 18 15 53 -10z m1442 2 c-3 -6 -10 -10 -16 -8 -6 1
-11 -5 -11 -13 0 -8 -9 -19 -20 -25 -16 -9 -20 -8 -20 7 0 24 39 63 56 56 8
-3 13 -11 11 -17z m84 1 c-13 -13 -26 -3 -16 12 3 6 11 8 17 5 6 -4 6 -10 -1
-17z m-1303 -23 c27 -18 30 -69 5 -96 -10 -11 -12 -18 -4 -18 6 0 16 -12 22
-26 20 -53 -39 -100 -86 -70 -29 19 -33 60 -9 87 15 17 15 19 0 34 -33 34 -7
105 39 105 6 0 21 -7 33 -16z m1031 -26 c14 -25 14 -29 -5 -55 -19 -27 -19
-29 -2 -45 24 -23 23 -53 -2 -78 -54 -54 -135 24 -84 81 15 17 15 19 0 34 -9
9 -16 27 -16 40 0 58 80 75 109 23z m-1101 -265 c21 -30 36 -95 26 -106 -12
-11 -34 14 -34 38 0 12 -7 28 -15 35 -16 14 -21 60 -6 60 5 0 18 -12 29 -27z
m1132 14 c0 -7 -8 -23 -17 -37 -9 -13 -18 -35 -19 -48 -2 -14 -8 -30 -14 -36
-28 -28 -33 60 -6 91 6 7 17 19 24 28 16 18 32 20 32 2z m-980 -67 c12 -8 9
-10 -12 -10 -35 0 -68 -32 -68 -65 0 -31 41 -75 70 -75 14 0 20 -7 20 -22 0
-32 29 -58 65 -58 34 0 57 19 75 60 9 22 10 20 6 -15 -13 -102 -132 -115 -172
-19 -9 21 -21 34 -32 34 -20 0 -55 34 -66 64 -11 33 12 83 47 100 37 18 47 19
67 6z m879 -25 c14 -13 16 -42 10 -122 -2 -33 -113 -132 -196 -176 -214 -112
-465 -99 -658 33 -26 18 -44 34 -41 37 2 3 20 -7 39 -21 67 -51 245 -117 279
-103 7 3 4 6 -8 6 -34 2 -67 45 -66 87 1 36 33 84 55 84 6 0 1 -10 -11 -23
-29 -30 -28 -62 3 -92 28 -29 51 -31 83 -9 20 14 24 14 44 0 30 -21 50 -20 82
5 30 24 34 63 10 98 -16 22 -16 22 4 10 21 -13 42 -50 42 -74 0 -30 -26 -68
-55 -82 -30 -13 -30 -14 15 -7 102 14 238 86 322 171 l52 53 -41 -16 c-31 -12
-42 -23 -47 -45 -3 -18 -16 -34 -35 -44 -70 -36 -132 1 -130 77 2 34 3 37 6
13 6 -42 30 -65 69 -65 33 0 74 36 74 66 0 8 6 14 14 14 7 0 25 9 40 21 52 41
25 118 -44 120 -22 0 -23 1 -5 8 24 10 73 -3 94 -24z m-847 -12 c10 -9 18 -27
18 -40 0 -17 6 -23 22 -23 50 0 76 -63 41 -102 -32 -35 -93 -10 -93 39 0 17
-6 23 -20 23 -24 0 -70 42 -70 65 0 22 37 55 62 55 12 0 30 -7 40 -17z m804
-9 c24 -36 9 -76 -32 -88 -22 -7 -33 -18 -40 -40 -10 -36 -54 -57 -81 -40 -49
31 -40 92 15 109 18 5 32 16 32 25 0 57 76 81 106 34z m-461 -180 c15 -15 17
-15 34 0 25 23 67 20 85 -6 23 -32 20 -54 -11 -77 -28 -23 -59 -20 -80 6 -8
10 -13 11 -18 3 -15 -24 -57 -31 -81 -15 -30 19 -34 78 -6 94 26 15 58 13 77
-5z m-172 -78 c34 -25 37 -50 5 -40 -13 3 -30 13 -39 20 -8 8 -25 14 -36 14
-26 0 -50 26 -31 33 22 8 71 -5 101 -27z m477 24 c19 -12 2 -30 -32 -34 -13
-1 -35 -10 -48 -19 -49 -34 -69 -13 -24 26 21 18 41 27 84 36 3 0 12 -4 20 -9z"/>
<path d="M237 1589 c-30 -18 -39 -56 -22 -90 9 -16 21 -29 27 -29 6 0 4 8 -5
18 -23 25 -21 65 3 87 19 17 41 17 85 0 15 -6 17 -5 9 4 -15 17 -76 23 -97 10z"/>
<path d="M448 1493 c7 -3 16 -2 19 1 4 3 -2 6 -13 5 -11 0 -14 -3 -6 -6z"/>
<path d="M896 1409 c-65 -16 -153 -69 -202 -121 -189 -202 -137 -525 106 -663
12 -7 13 -6 3 7 -11 12 -10 18 5 30 9 9 24 18 32 21 10 3 7 6 -8 6 -12 1 -25
-6 -28 -14 -9 -23 -23 -18 -17 5 3 11 13 25 22 29 25 14 119 22 126 11 3 -5
-1 -7 -9 -4 -9 3 -22 -1 -31 -9 -11 -12 -12 -16 -2 -20 9 -3 9 -10 -3 -31 -13
-26 -13 -29 5 -42 10 -8 26 -14 34 -15 9 -1 6 -4 -7 -7 -13 -4 22 -7 78 -7 56
0 91 3 78 7 -13 3 -16 6 -7 7 8 1 24 7 34 15 18 13 18 16 5 42 -11 20 -12 28
-3 31 7 2 10 10 7 18 -8 21 9 25 50 13 55 -17 71 -79 24 -94 -11 -3 -17 -8
-14 -11 10 -10 106 59 146 104 112 128 136 315 60 469 -40 82 -135 171 -216
203 -66 27 -202 37 -268 20z m114 -43 c-16 -17 -31 4 -18 27 11 21 11 21 18 2
4 -11 4 -24 0 -29z m-64 -16 c8 0 17 -7 20 -15 4 -8 18 -15 34 -15 16 0 30 7
34 15 3 8 14 15 25 15 12 0 27 12 36 28 l15 27 -6 -30 c-4 -16 -14 -35 -23
-42 -9 -7 -20 -16 -25 -20 -14 -12 -97 -3 -122 14 -13 8 -27 29 -33 46 l-11
32 21 -27 c11 -16 27 -28 35 -28z m-84 -16 c7 -14 27 -32 45 -39 26 -11 33
-20 33 -41 l0 -27 -22 20 c-13 11 -33 24 -45 28 -14 4 -23 14 -23 26 0 11 -5
29 -10 40 -8 13 -7 19 0 19 6 0 16 -12 22 -26z m310 14 c-5 -7 -12 -24 -14
-38 -2 -17 -14 -30 -40 -43 -21 -9 -38 -22 -38 -27 0 -6 -4 -10 -10 -10 -5 0
-10 11 -10 24 0 19 8 27 36 36 25 9 39 21 46 41 5 16 17 29 25 29 11 0 13 -3
5 -12z m-157 -8 c-3 -5 -12 -7 -20 -3 -21 7 -19 13 6 13 11 0 18 -4 14 -10z
m-220 -50 c3 -10 24 -24 47 -32 30 -9 48 -23 62 -47 19 -33 19 -34 1 -47 -27
-20 -35 -17 -35 9 0 24 -24 52 -61 71 -12 6 -27 28 -34 49 -11 32 -11 36 1 26
7 -6 16 -19 19 -29z m432 -5 c-8 -24 -24 -41 -47 -53 -21 -11 -37 -28 -43 -47
-12 -38 -11 -37 -31 -29 -9 3 -16 15 -16 26 0 26 53 78 80 78 13 0 27 11 38
30 23 41 34 38 19 -5z m-192 5 c4 -6 -10 -10 -35 -10 -25 0 -39 4 -35 10 3 6
19 10 35 10 16 0 32 -4 35 -10z m-295 -50 c11 -11 33 -20 48 -20 37 0 63 -29
66 -74 2 -20 11 -45 21 -56 18 -19 17 -20 -3 -20 -24 0 -52 35 -52 65 0 30
-23 57 -51 60 -13 1 -27 3 -31 4 -11 2 -37 61 -27 61 5 0 18 -9 29 -20z m288
13 c-16 -2 -40 -2 -55 0 -16 2 -3 4 27 4 30 0 43 -2 28 -4z m264 -23 c-9 -17
-28 -33 -42 -36 -44 -9 -55 -20 -68 -66 -8 -30 -20 -48 -36 -56 -33 -15 -39
-4 -16 26 11 13 20 37 20 53 0 36 35 69 72 69 16 0 36 9 45 20 28 32 45 25 25
-10z m-234 -9 c17 -10 -39 -21 -78 -16 -14 2 -32 4 -40 4 -13 1 -13 2 0 11 19
12 100 13 118 1z m-389 -43 c7 -7 35 -13 64 -13 51 0 52 0 72 -44 12 -24 30
-50 40 -57 14 -11 16 -17 8 -25 -12 -12 -48 19 -86 75 -14 20 -26 26 -56 26
-30 0 -42 6 -55 25 -17 26 -9 34 13 13z m411 5 c0 -5 -24 -7 -52 -5 -95 5
-104 9 -25 11 42 0 77 -2 77 -6z m280 0 c-1 -26 -33 -47 -72 -48 -39 0 -44 -3
-66 -43 -27 -48 -58 -70 -75 -53 -7 7 -3 16 16 31 14 11 31 36 37 54 13 41 30
49 85 41 31 -5 44 -3 54 9 15 17 21 20 21 9z m-243 -42 c17 -10 17 -10 -2 -11
-11 0 -27 -5 -35 -11 -11 -8 -7 -9 18 -5 30 5 32 4 18 -10 -11 -11 -25 -14
-46 -9 -39 9 -47 23 -18 34 17 7 4 10 -52 9 -41 0 -65 -3 -52 -5 31 -6 23 -26
-16 -37 -23 -6 -35 -5 -46 7 -23 23 -20 36 12 43 15 3 32 8 37 10 19 7 163 -4
182 -15z m-477 -36 c14 -17 46 -20 55 -5 11 17 44 11 63 -12 29 -36 49 -55 68
-66 14 -8 16 -14 8 -22 -19 -19 -53 -1 -80 41 -23 37 -27 39 -62 33 -31 -5
-41 -2 -61 20 -14 14 -20 26 -14 26 6 0 16 -7 23 -15z m675 -7 c21 -9 31 -9
47 1 30 19 33 6 3 -17 -22 -17 -31 -19 -53 -11 -24 9 -30 6 -67 -37 -27 -31
-47 -45 -59 -43 -23 5 -34 29 -13 29 7 0 32 20 55 45 45 49 49 51 87 33z
m-328 -12 c0 -8 -6 -12 -14 -9 -7 3 -10 9 -7 14 8 14 21 11 21 -5z m73 -6 c0
-5 -2 -10 -4 -10 -3 0 -8 5 -11 10 -3 6 -1 10 4 10 6 0 11 -4 11 -10z m-84
-22 c4 -6 -2 -7 -16 -3 -15 5 -20 4 -16 -4 4 -6 5 -11 2 -11 -3 0 -10 8 -15
19 -9 16 -7 17 15 13 13 -2 27 -9 30 -14z m63 -3 c6 -34 51 -55 51 -24 0 6 -4
7 -10 4 -5 -3 -10 0 -10 8 0 25 27 27 49 3 18 -20 20 -24 7 -29 -10 -4 -13 -1
-10 7 3 8 1 17 -5 21 -7 3 -11 -2 -11 -14 0 -12 -4 -21 -9 -21 -6 0 -3 -12 5
-27 18 -36 18 -67 -1 -102 -14 -27 -11 -41 7 -41 5 0 6 5 3 10 -3 6 0 10 8 10
14 0 17 -27 4 -47 -8 -13 50 -43 86 -43 16 0 33 -12 51 -35 29 -38 19 -48 -14
-15 -11 11 -33 20 -49 20 -43 0 -60 9 -76 40 -10 20 -11 30 -2 39 8 8 6 11
-11 11 -12 0 -22 4 -22 9 0 5 -19 2 -43 -7 -39 -14 -46 -14 -76 1 -33 17 -51
15 -51 -4 0 -6 5 -7 10 -4 6 3 10 -1 10 -11 0 -13 -3 -14 -15 -4 -17 14 -20
37 -5 42 7 2 5 16 -6 37 -14 27 -15 40 -5 70 14 49 40 71 90 78 25 4 41 11 41
19 0 8 -5 14 -11 14 -5 0 -7 -5 -3 -12 4 -7 3 -8 -4 -4 -18 11 -14 28 5 24 10
-2 19 -12 22 -23z m-126 1 c4 -10 1 -13 -7 -10 -8 3 -17 1 -21 -5 -3 -7 3 -11
17 -12 17 -1 18 -3 5 -6 -9 -2 -15 -9 -12 -14 4 -5 -1 -9 -9 -9 -10 0 -13 6
-9 17 5 12 3 14 -8 8 -8 -5 -3 4 10 18 29 32 27 31 34 13z m-263 -36 c13 -7
21 -7 25 0 12 19 52 10 90 -20 21 -16 42 -30 46 -30 5 0 9 -7 9 -15 0 -24 -33
-17 -72 16 -32 25 -43 29 -73 23 -20 -3 -35 -2 -35 3 0 6 -10 15 -22 21 -19 9
-20 11 -5 11 10 1 27 -4 37 -9z m677 -1 c8 -8 17 -8 31 0 11 6 29 11 39 11 12
0 8 -6 -16 -21 -23 -14 -42 -18 -62 -14 -24 5 -36 1 -65 -24 -37 -33 -74 -41
-74 -16 0 8 6 15 13 15 6 0 28 14 47 30 36 31 68 38 87 19z m-187 -38 c0 -11
-5 -23 -11 -27 -8 -4 -9 1 -4 16 5 17 4 21 -5 15 -9 -5 -11 -4 -6 3 11 18 26
14 26 -7z m-280 5 c0 -3 -4 -8 -10 -11 -5 -3 -10 -1 -10 4 0 6 5 11 10 11 6 0
10 -2 10 -4z m292 -38 c-6 -6 -7 0 -4 19 5 21 7 23 10 9 2 -10 0 -22 -6 -28z
m-389 -8 c58 -25 75 -50 35 -50 -12 0 -38 11 -58 25 -32 22 -39 24 -67 13 -24
-9 -37 -9 -55 0 -23 12 -23 12 0 6 14 -3 32 2 49 16 14 11 29 19 33 18 4 -2
32 -14 63 -28z m115 23 c-10 -2 -18 -9 -18 -14 0 -6 6 -7 13 -3 9 5 9 4 0 -6
-15 -16 -28 -7 -20 15 4 8 14 14 24 14 17 -1 17 -2 1 -6z m495 -46 c-8 -5 -25
-1 -43 9 -29 18 -30 17 -53 -4 -31 -30 -97 -42 -97 -18 0 9 7 16 15 16 9 0 36
11 61 24 l46 24 42 -21 c30 -16 39 -24 29 -30z m-225 -4 c-2 -10 -11 -18 -21
-19 -12 -1 -13 -1 -2 3 8 2 15 9 15 14 0 6 -5 7 -12 3 -7 -4 -8 -3 -4 4 11 18
28 14 24 -5z m-295 -13 c-3 -12 -8 -19 -11 -16 -5 6 5 36 12 36 2 0 2 -9 -1
-20z m22 -11 c-5 -16 -4 -19 5 -14 9 6 11 4 5 -4 -10 -18 -29 3 -22 23 9 24
19 19 12 -5z m-126 -5 c18 -9 43 -14 56 -12 27 6 43 -17 19 -26 -26 -10 -54
-7 -85 10 -28 14 -32 14 -48 0 -10 -9 -25 -16 -34 -16 -12 0 -8 8 15 30 36 35
35 35 77 14z m573 -8 c13 -13 32 -26 43 -29 14 -3 12 -5 -9 -6 -16 0 -37 6
-47 15 -16 14 -20 14 -42 -1 -31 -20 -91 -17 -95 6 -2 12 4 15 26 11 16 -2 42
3 58 12 38 20 39 20 66 -8z m-162 4 c0 -5 -8 -10 -17 -10 -15 0 -16 2 -3 10
19 12 20 12 20 0z m-272 -47 c5 -45 1 -59 -19 -75 -12 -10 -35 -18 -51 -18
-16 0 -41 -9 -55 -20 -27 -21 -58 -28 -33 -7 8 7 20 21 26 32 7 12 26 22 48
26 54 9 88 29 75 45 -6 7 -8 18 -4 24 9 14 11 13 13 -7z m-43 -29 c-14 -11
-33 -14 -64 -10 -37 5 -49 2 -68 -16 -25 -24 -43 -19 -22 7 38 44 40 45 79 39
21 -3 46 -1 56 4 28 16 44 -5 19 -24z m385 19 c41 5 70 -7 70 -29 0 -8 10 -19
23 -24 21 -8 21 -9 1 -9 -11 -1 -29 8 -38 18 -15 16 -27 19 -65 15 -31 -4 -52
-1 -65 9 -26 19 -12 41 16 26 12 -6 37 -9 58 -6z m-249 -33 c6 0 7 6 3 13 -5
9 -4 9 6 0 16 -15 7 -28 -15 -20 -8 4 -14 14 -14 24 1 17 2 17 6 1 2 -10 9
-18 14 -18z m84 9 c-8 -12 -32 -11 -41 2 -4 8 1 9 16 4 17 -5 21 -4 15 5 -5 9
-4 11 4 6 6 -4 9 -12 6 -17z m-111 -15 c3 -8 2 -12 -4 -9 -6 3 -10 10 -10 16
0 14 7 11 14 -7z m87 -12 c-7 -2 -18 1 -23 6 -8 8 -4 9 13 5 13 -4 18 -8 10
-11z m-53 -25 c8 -6 16 -6 25 0 19 16 61 23 76 14 19 -12 -20 -33 -79 -42 -41
-6 -54 -3 -99 27 -1 2 0 7 4 13 7 12 52 5 73 -12z m102 -27 c-20 -13 -33 -13
-25 0 3 6 14 10 23 10 15 0 15 -2 2 -10z m-156 -26 c9 -3 16 -15 16 -26 0 -14
-5 -18 -16 -14 -9 3 -18 6 -20 6 -2 0 -4 9 -4 20 0 22 1 23 24 14z m89 -1
c-13 -2 -33 -2 -45 0 -13 2 -3 4 22 4 25 0 35 -2 23 -4z m55 -34 c-19 -13 -28
-11 -28 6 0 21 34 38 38 18 2 -9 -2 -19 -10 -24z m-38 1 c0 -17 -7 -20 -40
-20 -33 0 -40 3 -40 20 0 17 7 20 40 20 33 0 40 -3 40 -20z m-104 -32 c3 -21
0 -22 -27 -7 -11 5 -17 15 -13 20 9 16 37 6 40 -13z m171 5 c3 -7 -12 -16 -34
-22 -48 -14 -123 -14 -123 -1 0 6 28 10 63 10 34 0 69 5 77 11 12 8 10 9 -9 4
-16 -5 -21 -4 -16 4 8 15 37 10 42 -6z"/>
<path d="M890 1120 c8 -5 22 -10 30 -10 13 0 13 1 0 10 -8 5 -22 10 -30 10
-13 0 -13 -1 0 -10z"/>
<path d="M958 1015 c-83 -46 -54 -175 39 -175 48 0 78 21 93 64 26 79 -60 151
-132 111z m53 -65 c28 0 23 -17 -8 -32 -34 -16 -37 -42 -5 -46 15 -2 22 2 22
12 0 18 -16 22 -23 6 -3 -6 -4 -5 -3 2 4 19 40 16 44 -5 4 -21 -19 -31 -54
-23 -32 8 -30 45 4 62 19 9 20 13 8 17 -9 4 -16 12 -15 19 0 10 2 10 6 1 2 -7
13 -13 24 -13z"/>
<path d="M1165 680 c28 -12 37 -12 30 0 -3 6 -16 10 -28 9 -21 0 -21 -1 -2 -9z"/>
<path d="M830 610 c8 -5 20 -10 25 -10 6 0 3 5 -5 10 -8 5 -19 10 -25 10 -5 0
-3 -5 5 -10z"/>
<path d="M1125 600 c-13 -6 -15 -9 -5 -9 8 0 22 4 30 9 18 12 2 12 -25 0z"/>
<path d="M988 573 c12 -2 30 -2 40 0 9 3 -1 5 -23 4 -22 0 -30 -2 -17 -4z"/>
<path d="M176 1304 c-9 -8 -16 -23 -16 -33 0 -21 30 -51 52 -51 19 0 48 32 48
53 0 21 -27 47 -50 47 -10 0 -26 -7 -34 -16z m62 -16 c16 -16 -3 -48 -29 -48
-22 0 -34 22 -25 45 6 18 37 20 54 3z"/>
<path d="M1757 1302 c-22 -24 -21 -45 1 -65 23 -21 46 -22 66 -1 30 30 9 84
-33 84 -10 0 -25 -8 -34 -18z m58 -32 c0 -18 -6 -26 -23 -28 -13 -2 -25 3 -28
12 -10 26 4 48 28 44 17 -2 23 -10 23 -28z"/>
<path d="M194 995 c-7 -17 -44 -21 -44 -5 0 6 -9 10 -20 10 -23 0 -27 -28 -5
-36 11 -5 12 -11 5 -24 -12 -23 -13 -43 -1 -36 5 3 30 7 55 8 54 2 49 15 -6
20 -28 2 -35 6 -29 16 4 7 19 14 32 16 45 4 65 28 34 40 -9 3 -18 -1 -21 -9z"/>
<path d="M1850 989 c0 -7 -14 -10 -35 -7 -19 2 -35 0 -35 -4 0 -4 11 -8 24 -8
14 0 32 -8 42 -17 17 -17 16 -18 -22 -21 -45 -4 -63 -17 -46 -34 8 -8 15 -8
26 2 9 7 30 10 46 8 29 -4 31 -3 25 23 -3 15 -1 30 4 34 18 11 12 35 -9 35
-11 0 -20 -5 -20 -11z"/>
<path d="M52 925 c0 -16 2 -22 5 -12 2 9 2 23 0 30 -3 6 -5 -1 -5 -18z"/>
<path d="M302 930 c0 -14 2 -19 5 -12 2 6 2 18 0 25 -3 6 -5 1 -5 -13z"/>
<path d="M188 889 c-2 -6 -19 -14 -38 -18 -36 -8 -31 -14 24 -26 34 -7 23 -26
-18 -28 -29 -2 -36 -17 -8 -17 77 1 120 30 70 49 -18 6 -19 9 -5 14 23 9 21
37 -2 37 -11 0 -21 -5 -23 -11z"/>
<path d="M1941 884 c0 -11 3 -14 6 -6 3 7 2 16 -1 19 -3 4 -6 -2 -5 -13z"/>
<path d="M1769 859 c-12 -23 3 -49 29 -49 13 0 13 2 -3 13 -11 8 -15 19 -10
26 7 12 22 11 80 -6 18 -5 18 -3 5 10 -8 8 -32 17 -52 20 -31 5 -40 2 -49 -14z"/>
<path d="M1736 790 c4 -25 13 -52 20 -60 13 -13 14 -10 8 18 -5 24 -3 32 8 32
10 0 13 -8 10 -30 -4 -25 0 -30 23 -36 29 -7 52 7 40 26 -4 7 -17 9 -32 5 -18
-4 -24 -2 -21 7 3 7 17 13 31 13 14 1 29 4 33 7 6 7 -59 28 -85 28 -8 0 -20 8
-27 18 -12 15 -13 11 -8 -28z"/>
<path d="M200 790 c0 -6 8 -10 18 -8 10 2 17 -3 17 -12 0 -10 -16 -18 -42 -24
-40 -9 -59 -26 -29 -26 17 0 79 21 89 30 17 15 -3 50 -29 50 -13 0 -24 -5 -24
-10z"/>
<path d="M277 758 c6 -7 15 -26 20 -43 l11 -30 7 28 c8 30 -7 57 -32 57 -11 0
-13 -4 -6 -12z"/>
<path d="M1646 745 c-9 -26 -7 -32 5 -12 6 10 9 21 6 23 -2 3 -7 -2 -11 -11z"/>
<path d="M1672 699 c0 -32 3 -47 9 -43 6 3 9 15 6 25 -3 10 0 17 6 16 19 -4
18 28 -1 40 -17 10 -19 7 -20 -38z"/>
<path d="M350 735 c0 -5 5 -17 10 -25 5 -8 10 -10 10 -5 0 6 -5 17 -10 25 -5
8 -10 11 -10 5z"/>
<path d="M225 720 c-5 -9 -1 -10 14 -5 15 4 21 2 21 -9 0 -20 -19 -30 -52 -28
-19 2 -28 -2 -28 -12 0 -26 18 -27 60 -6 32 16 41 26 38 43 -3 24 -41 36 -53
17z"/>
<path d="M1715 686 c-15 -22 -15 -28 -2 -46 7 -11 16 -17 20 -14 3 3 15 0 27
-6 18 -9 25 -8 41 6 25 23 24 40 -3 58 -46 28 -66 29 -83 2z m74 -21 c7 -7 10
-19 6 -25 -6 -9 -10 -8 -17 4 -10 19 -38 22 -38 4 0 -9 -3 -9 -11 -1 -7 7 -9
19 -5 28 7 18 40 13 65 -10z"/>
<path d="M273 651 c-3 -11 -18 -25 -34 -31 -45 -19 -34 -31 21 -24 28 4 50 4
50 0 0 -3 -19 -15 -42 -27 -24 -12 -38 -24 -31 -26 18 -6 93 35 93 52 0 7 -9
17 -21 20 -16 5 -18 10 -9 20 12 15 6 35 -12 35 -5 0 -12 -9 -15 -19z"/>
<path d="M390 650 c6 -11 13 -20 16 -20 2 0 0 9 -6 20 -6 11 -13 20 -16 20 -2
0 0 -9 6 -20z"/>
<path d="M1565 594 c-21 -30 -68 -83 -104 -116 -38 -35 -48 -47 -24 -29 49 37
130 125 156 170 29 49 14 36 -28 -25z"/>
<path d="M1677 608 c-18 -10 -23 -53 -8 -62 5 -4 7 2 4 12 -5 21 22 49 32 32
3 -5 1 -10 -4 -10 -20 0 -12 -49 9 -60 24 -13 40 -6 40 17 0 10 -6 14 -20 10
-13 -3 -20 0 -20 8 0 9 14 15 36 17 l37 3 -45 21 c-31 16 -49 19 -61 12z"/>
<path d="M1847 575 c-9 -19 -15 -35 -12 -35 7 0 37 61 33 66 -3 2 -12 -12 -21
-31z"/>
<path d="M318 550 c-7 -11 -21 -20 -31 -20 -14 0 -18 -6 -15 -26 4 -33 28 -50
54 -39 11 4 34 9 52 11 42 4 42 -16 1 -51 -17 -14 -29 -29 -26 -32 11 -10 77
47 77 67 0 26 -30 41 -55 29 -20 -10 -20 -10 -1 5 32 25 10 30 -28 6 -36 -22
-56 -20 -56 6 0 16 16 19 25 4 3 -5 11 -10 17 -10 7 0 6 6 -2 15 -10 12 -9 15
7 15 27 0 35 10 22 27 -16 18 -27 16 -41 -7z"/>
<path d="M170 530 c6 -11 13 -20 16 -20 2 0 0 9 -6 20 -6 11 -13 20 -16 20 -2
0 0 -9 6 -20z"/>
<path d="M500 508 c24 -27 45 -48 47 -48 8 0 0 9 -44 50 l-48 45 45 -47z"/>
<path d="M1605 510 c-20 -22 -14 -47 12 -57 10 -3 26 -13 36 -21 22 -19 35 -8
16 14 -8 9 -14 24 -14 33 0 21 -32 27 -38 7 -3 -12 -4 -12 -3 1 2 28 30 26 65
-2 23 -20 31 -23 31 -12 0 18 -51 57 -72 57 -8 0 -23 -9 -33 -20z"/>
<path d="M504 445 c-9 -22 15 -45 60 -55 31 -7 35 -6 25 6 -6 8 -21 14 -34 14
-16 0 -21 6 -21 21 1 27 -22 37 -30 14z"/>
<path d="M1545 450 c-9 -15 4 -30 25 -30 10 0 22 -5 26 -11 5 -8 -4 -10 -29
-7 -22 2 -34 0 -31 -7 3 -5 -2 -1 -10 9 -16 20 -16 20 -16 -1 0 -11 9 -28 20
-38 11 -10 20 -22 20 -27 0 -16 -40 -8 -52 12 -16 25 -51 27 -46 3 2 -9 6 -15
9 -12 12 9 37 -23 32 -41 -4 -15 0 -20 16 -20 14 0 21 6 21 20 0 14 7 20 23
20 36 0 38 10 9 35 -34 30 -26 38 27 26 56 -12 63 4 18 46 -38 35 -52 40 -62
23z"/>
<path d="M1759 433 c-13 -16 -12 -17 4 -4 16 13 21 21 13 21 -2 0 -10 -8 -17
-17z"/>
<path d="M230 436 c0 -2 8 -10 18 -17 15 -13 16 -12 3 4 -13 16 -21 21 -21 13z"/>
<path d="M424 418 c-5 -7 0 -9 14 -6 12 4 26 0 33 -8 17 -20 5 -28 -20 -12
-18 11 -24 10 -43 -10 -16 -16 -19 -25 -11 -33 13 -13 33 -4 33 17 0 8 5 14
10 14 13 0 13 -33 -1 -47 -7 -7 -7 -13 -1 -17 5 -3 22 12 37 33 22 33 25 43
15 60 -12 23 -54 29 -66 9z"/>
<path d="M1364 404 c-18 -14 -18 -15 4 -4 12 6 22 13 22 15 0 8 -5 6 -26 -11z"/>
<path d="M1690 352 c-30 -32 -75 -76 -100 -97 -25 -21 -36 -32 -25 -24 50 34
118 96 151 136 19 24 34 43 32 43 -2 0 -28 -26 -58 -58z"/>
<path d="M500 345 c-5 -14 -14 -25 -20 -25 -18 0 -11 -39 9 -50 33 -17 47 -12
75 30 19 29 22 40 12 40 -8 0 -16 -7 -20 -15 -3 -9 -12 -12 -22 -8 -15 5 -15
7 0 15 23 13 20 38 -4 38 -13 0 -24 -10 -30 -25z m38 -47 c-3 -7 -13 -13 -23
-13 -10 0 -20 6 -22 13 -3 7 5 12 22 12 17 0 25 -5 23 -12z"/>
<path d="M1409 346 c-6 -13 -20 -27 -30 -29 -11 -3 -19 -13 -19 -22 0 -10 5
-13 12 -9 7 5 8 3 3 -6 -6 -10 -4 -12 8 -7 11 4 17 -1 19 -16 3 -24 43 -36 60
-19 14 14 3 53 -22 80 -17 18 -19 26 -10 37 9 11 9 15 1 15 -6 0 -16 -11 -22
-24z m30 -60 c15 -28 6 -55 -13 -36 -12 12 -16 60 -6 60 4 0 12 -11 19 -24z"/>
<path d="M582 281 c-27 -48 -28 -61 -1 -61 17 0 20 4 16 22 -4 13 2 32 14 50
15 21 17 28 7 28 -8 0 -24 -17 -36 -39z"/>
<path d="M634 295 c-3 -8 -3 -19 1 -25 4 -6 -1 -22 -10 -36 -26 -39 -9 -41 30
-4 42 41 51 36 26 -13 -14 -27 -15 -37 -6 -37 12 0 45 67 45 90 0 14 -33 13
-47 -1 -9 -9 -11 -7 -7 8 7 24 -24 41 -32 18z"/>
<path d="M908 303 c6 -2 18 -2 25 0 6 3 1 5 -13 5 -14 0 -19 -2 -12 -5z"/>
<path d="M1068 303 c6 -2 18 -2 25 0 6 3 1 5 -13 5 -14 0 -19 -2 -12 -5z"/>
<path d="M1145 283 c-27 -18 -35 -28 -25 -31 8 -3 16 0 17 5 2 6 15 8 28 5 21
-4 25 -1 25 22 0 14 -1 26 -2 25 -2 0 -21 -12 -43 -26z"/>
<path d="M804 289 c-4 -7 -3 -14 2 -16 35 -12 37 -20 26 -78 -12 -58 -9 -79
11 -72 17 5 17 138 0 144 -7 3 -13 9 -13 14 0 5 12 4 26 -1 33 -13 51 -13 39
-1 -18 17 -82 24 -91 10z"/>
<path d="M1273 277 c-3 -5 -16 -12 -29 -17 -31 -12 -32 -40 -1 -40 31 0 38 -9
26 -31 -8 -15 -6 -21 6 -25 26 -10 35 8 20 44 -8 18 -22 32 -32 33 -16 0 -16
1 2 8 14 6 24 3 32 -8 11 -14 12 -13 13 7 0 37 27 25 45 -20 10 -24 20 -37 22
-30 3 8 -3 31 -12 53 -16 35 -21 39 -52 36 -19 -1 -37 -6 -40 -10z"/>
<path d="M947 273 c-13 -12 -7 -21 18 -27 23 -6 25 -10 25 -71 0 -50 3 -65 14
-65 21 0 30 20 17 33 -6 6 -11 30 -11 53 0 33 -5 47 -22 59 -23 17 -23 17 7
11 17 -3 37 -2 45 4 11 7 1 10 -36 10 -28 0 -54 -3 -57 -7z"/>
<path d="M730 245 c-7 -8 -10 -22 -6 -31 3 -8 1 -24 -4 -35 -12 -22 4 -27 17
-6 4 8 16 16 26 20 25 9 23 41 -3 34 -22 -6 -28 8 -7 16 26 10 40 -9 32 -44
-4 -19 -12 -40 -19 -48 -9 -11 -8 -13 4 -9 8 2 22 24 30 47 14 40 14 43 -4 57
-25 18 -50 18 -66 -1z"/>
<path d="M1193 223 c3 -16 9 -36 12 -45 5 -12 1 -20 -9 -24 -22 -8 -33 3 -18
18 16 16 15 29 -2 22 -11 -4 -13 0 -9 14 6 23 -14 39 -30 23 -8 -8 -7 -17 1
-33 6 -13 12 -32 14 -43 3 -22 35 -31 57 -16 16 10 6 111 -11 111 -6 0 -8 -12
-5 -27z"/>
<path d="M870 212 c0 -11 5 -22 10 -24 7 -2 7 -14 1 -36 l-10 -33 35 7 c22 4
34 2 34 -5 0 -14 27 -14 35 -1 4 6 1 18 -6 27 -8 8 -12 28 -11 44 2 16 -1 29
-7 29 -6 0 -11 -15 -11 -34 0 -26 -5 -35 -21 -39 -18 -5 -20 -2 -17 36 2 33
-1 42 -14 45 -12 2 -18 -3 -18 -16z"/>
<path d="M1046 215 c-10 -11 -13 -26 -9 -53 6 -42 16 -57 32 -48 14 9 14 36 1
36 -5 0 -10 5 -10 10 0 21 30 9 36 -15 3 -14 12 -25 19 -25 10 0 11 9 2 43
-16 67 -39 84 -71 52z m44 -15 c0 -5 -4 -10 -9 -10 -5 0 -17 -3 -25 -6 -12 -5
-15 -2 -10 10 7 17 44 22 44 6z"/>
<path d="M1510 199 c-22 -18 -22 -19 -3 -10 12 6 25 16 28 21 9 15 3 12 -25
-11z"/>
<path d="M1420 150 c-19 -11 -31 -19 -27 -20 11 0 67 29 67 35 0 7 -1 7 -40
-15z"/>
<path d="M630 120 c8 -5 20 -10 25 -10 6 0 3 5 -5 10 -8 5 -19 10 -25 10 -5 0
-3 -5 5 -10z"/>
<path d="M888 53 c7 -3 16 -2 19 1 4 3 -2 6 -13 5 -11 0 -14 -3 -6 -6z"/>
<path d="M1098 53 c7 -3 16 -2 19 1 4 3 -2 6 -13 5 -11 0 -14 -3 -6 -6z"/>
<path d="M985 401 c-3 -6 -15 -11 -26 -11 -11 0 -17 -4 -14 -10 8 -12 115 -13
115 -1 0 5 -8 11 -17 14 -10 2 -25 8 -34 12 -10 3 -20 2 -24 -4z"/>
<path d="M1470 2253 c-14 -15 -19 -23 -11 -18 12 7 13 1 8 -31 -4 -27 -3 -34
3 -24 5 8 10 25 10 37 0 12 5 23 11 25 6 2 10 11 8 21 -3 14 -8 12 -29 -10z"/>
<path d="M1396 2183 c-26 -24 -27 -28 -12 -38 19 -15 22 -39 3 -32 -9 3 -13
-2 -13 -15 1 -28 -34 -33 -41 -7 -7 26 -18 24 -38 -8 l-18 -28 23 20 c19 16
22 17 17 3 -4 -11 3 -20 24 -28 16 -7 29 -18 30 -24 0 -6 4 -1 9 12 6 14 18
22 34 22 14 0 28 5 32 12 5 8 -2 9 -24 5 -35 -7 -39 1 -19 34 10 17 9 22 -5
33 -16 12 -16 15 7 36 14 13 25 18 25 11 0 -7 5 -9 10 -6 11 7 4 25 -8 25 -4
0 -20 -12 -36 -27z m-19 -129 c-3 -3 -12 -4 -19 -1 -8 3 -5 6 6 6 11 1 17 -2
13 -5z"/>
<path d="M1420 2155 c0 -8 7 -15 15 -15 8 0 15 7 15 15 0 8 -7 15 -15 15 -8 0
-15 -7 -15 -15z"/>
<path d="M1343 2141 c-7 -11 -8 -23 -1 -34 15 -27 27 -20 23 14 -5 39 -8 42
-22 20z"/>
<path d="M1425 2111 c-3 -5 -1 -12 5 -16 5 -3 10 1 10 9 0 18 -6 21 -15 7z"/>
<path d="M590 2041 c0 -5 5 -13 10 -16 6 -3 10 -2 10 4 0 5 -4 13 -10 16 -5 3
-10 2 -10 -4z"/>
<path d="M1407 2043 c-4 -3 -7 -11 -7 -17 0 -6 5 -5 12 2 6 6 9 14 7 17 -3 3
-9 2 -12 -2z"/>
<path d="M437 1858 c6 -7 14 -28 18 -46 3 -18 11 -29 16 -26 6 4 6 11 -1 19
-6 7 -10 17 -9 21 3 20 -2 32 -17 38 -13 5 -14 3 -7 -6z"/>
<path d="M493 1833 c-19 -7 -16 -20 6 -26 14 -3 17 0 14 14 -3 11 -6 19 -7 18
0 0 -7 -3 -13 -6z"/>
<path d="M1346 1824 c-4 -10 -1 -14 6 -12 15 5 23 28 10 28 -5 0 -13 -7 -16
-16z"/>
<path d="M1532 1795 c2 -16 -2 -20 -22 -18 -22 3 -23 2 -6 -8 25 -15 57 14 37
33 -10 11 -12 9 -9 -7z"/>
<path d="M1351 1774 c0 -11 3 -14 6 -6 3 7 2 16 -1 19 -3 4 -6 -2 -5 -13z"/>
<path d="M1523 1748 c-22 -10 -39 -48 -21 -48 5 0 6 -5 2 -12 -4 -7 -3 -8 5
-4 6 4 9 12 6 17 -4 5 -1 9 4 9 6 0 11 6 11 14 0 8 6 16 13 19 6 2 10 7 7 9
-3 3 -15 1 -27 -4z"/>
<path d="M1421 1734 c0 -11 3 -14 6 -6 3 7 2 16 -1 19 -3 4 -6 -2 -5 -13z"/>
<path d="M575 1730 c-3 -5 -1 -10 4 -10 6 0 11 5 11 10 0 6 -2 10 -4 10 -3 0
-8 -4 -11 -10z"/>
<path d="M1480 1590 c8 -5 20 -10 25 -10 6 0 3 5 -5 10 -8 5 -19 10 -25 10 -5
0 -3 -5 5 -10z"/>
<path d="M1530 1586 c-19 -17 -74 -31 -65 -16 3 5 1 10 -4 10 -16 0 -13 -20 2
-26 8 -3 36 -1 63 4 27 6 41 10 32 11 -11 1 -15 6 -12 16 8 19 3 19 -16 1z"/>
<path d="M465 1580 c3 -5 -4 -11 -17 -11 -13 -1 2 -5 32 -10 30 -5 60 -7 67
-5 16 6 17 26 2 26 -5 0 -7 -5 -3 -11 4 -8 -4 -9 -27 -4 -19 4 -35 11 -37 16
-2 5 -8 9 -13 9 -6 0 -7 -4 -4 -10z"/>
<path d="M1555 1500 c-13 -5 -14 -9 -5 -9 8 0 24 4 35 9 13 5 14 9 5 9 -8 0
-24 -4 -35 -9z"/>
</g>
</svg>
